<svg width="225" height="43" viewBox="0 0 225 43" xmlns="http://www.w3.org/2000/svg"><g id="Artboard" stroke="none" stroke-width="1" fill="none" fill-rule="evenodd"><g id="Group" fill-rule="nonzero"><g transform="translate(52.382 10.164)"><path d="M.39 21.03L4.457 1.877h15.246c1.016 0 1.798.079 2.502.235.625.156 1.172.39 1.485.782.313.39.547.86.626 1.485.078.626 0 1.407-.235 2.346l-.235 1.172c-.39 1.799-1.485 2.893-3.205 3.128.782.078 1.407.469 1.876 1.016.47.547.548 1.407.313 2.58l-.234 1.25c-.235 1.017-.47 1.8-.86 2.425-.391.625-.782 1.172-1.408 1.563-.547.391-1.25.626-2.032.782-.782.156-1.642.235-2.659.235H.391v.156zM20.25 7.35c.155-.626.077-1.017-.08-1.252-.234-.234-.625-.39-1.25-.39H7.427l-.86 4.143H18.06c.625 0 1.016-.156 1.33-.391.312-.235.546-.704.703-1.407l.156-.704zm-1.174 7.505c.157-.704.157-1.173-.078-1.486-.234-.313-.703-.39-1.485-.39H5.863l-.938 4.377h11.493c.86 0 1.407-.156 1.798-.39.313-.235.548-.704.704-1.33l.156-.781zM27.99 4.77l.86-3.988h3.752l-.86 3.987h-3.753zm-3.44 16.26l3.205-15.01h3.752l-3.205 15.01h-3.753z" id="Shape" fill="#3B414A"/><path id="Path" fill="#3B414A" d="M43.782 21.03l-4.222-5.315-3.596 2.736-.548 2.58h-3.752l4.143-19.624 3.988-1.25-2.971 14.072 10.32-8.209h4.612l-9.46 7.427 6.255 7.584z"/><path d="M55.196 21.03c-1.798 0-3.127-.39-3.987-1.25-.86-.86-1.094-2.19-.704-4.065l.939-4.457c.39-1.876 1.172-3.205 2.345-4.065 1.173-.86 2.658-1.251 4.535-1.251h5.003c1.798 0 3.128.39 3.988 1.25.86.86 1.094 2.19.703 4.066l-.782 3.518H54.415l-.157.939c-.156.781-.078 1.329.235 1.641.312.313.782.47 1.407.47h10.476l-1.172 3.205H55.196zm9.07-9.46c.156-.86.156-1.406-.079-1.72-.234-.312-.703-.468-1.485-.468h-4.926c-.703 0-1.329.156-1.72.469-.39.313-.625.86-.781 1.564l-.235 1.172h9.07l.155-1.016z" id="Shape" fill="#3B414A"/><path d="M69.113 21.03l4.065-19.154h16.106c1.172 0 2.11.079 2.814.313.704.235 1.251.547 1.642 1.016.313.47.547 1.095.547 1.955 0 .782-.078 1.798-.312 2.893l-1.408 6.723a13.297 13.297 0 0 1-.938 2.971 7.368 7.368 0 0 1-1.407 1.955c-.547.469-1.251.86-2.033 1.016-.782.235-1.798.313-2.97.313H69.112zm21.109-12.9c.234-.937.156-1.563-.078-1.954-.235-.312-.782-.547-1.642-.547H76.227L73.804 17.2H86c.86 0 1.485-.156 1.876-.47.391-.312.704-.937.86-1.875l1.486-6.724zM100.23 21.03c-1.8 0-3.128-.39-3.988-1.25-.86-.86-1.095-2.19-.704-4.065l.938-4.457c.391-1.876 1.173-3.205 2.346-4.065 1.173-.86 2.658-1.251 4.534-1.251h5.004c1.798 0 3.127.39 3.987 1.25.86.86 1.095 2.19.704 4.066l-.782 3.518H99.525l-.234.939c-.156.781-.078 1.329.234 1.641.313.313.782.47 1.408.47h10.476l-1.173 3.205H100.23zm9.068-9.46c.157-.86.157-1.406-.078-1.72-.235-.312-.704-.468-1.485-.468h-4.926c-.704 0-1.329.156-1.72.469-.39.313-.625.86-.782 1.564l-.234 1.172h9.069l.156-1.016z" id="Shape" fill="#D22527"/><path id="Path" fill="#D22527" d="M126.264 21.03l-4.222-5.315-3.597 2.736-.547 2.58h-3.753l4.144-19.624 3.987-1.25-2.97 14.072 10.32-8.209h4.612l-9.46 7.427 6.255 7.584zM145.496 21.03l2.033-9.46c.156-.78.156-1.328-.078-1.72-.235-.39-.704-.546-1.486-.546h-4.847c-.547 0-.938.078-1.329.312-.39.235-.625.626-.86 1.095l-2.189 10.32h-3.753l4.144-19.624 3.987-1.25-1.72 8.052c.547-.782 1.173-1.329 1.798-1.642.626-.312 1.408-.469 2.268-.469h3.127c1.094 0 1.954.157 2.658.391.704.235 1.173.626 1.564 1.095.312.469.547 1.094.547 1.876 0 .782-.078 1.642-.235 2.658l-1.876 8.991h-3.753v-.078z"/><path d="M158.24 21.03c-2.033 0-3.362-.39-4.144-1.25-.703-.86-.938-2.19-.469-4.065l.938-4.457c.391-1.876 1.173-3.205 2.19-4.065 1.094-.86 2.658-1.251 4.69-1.251h5.004c2.033 0 3.44.39 4.144 1.25.703.86.938 2.19.469 4.066l-.938 4.457c-.391 1.876-1.173 3.205-2.19 4.065-1.094.86-2.658 1.25-4.69 1.25h-5.004zm9.07-9.694c.155-.781.077-1.329-.157-1.641-.235-.313-.782-.47-1.486-.47h-4.925c-.704 0-1.251.157-1.642.47-.39.312-.704.86-.86 1.641l-.938 4.457c-.157.782-.078 1.329.156 1.642.235.312.782.469 1.486.469h4.925c.704 0 1.251-.157 1.642-.47.39-.312.704-.86.86-1.641l.938-4.457z" id="Shape" fill="#D22527"/></g><path d="M39.95.47H11.416a6.106 6.106 0 0 0-6.099 6.097v18.998l1.33-1.641V6.88a5.155 5.155 0 0 1 5.16-5.16h27.832a5.155 5.155 0 0 1 5.16 5.16v27.833a5.155 5.155 0 0 1-5.16 5.16H11.805c-.469.469-.86.86-1.329 1.25.313.079.704.079 1.017.079h28.536a6.106 6.106 0 0 0 6.098-6.098V6.567c0-3.362-2.736-6.098-6.176-6.098z" id="Path" fill="#D22527"/><g transform="translate(0 4.69)" fill="#D22527"><path d="M17.2 16.105c-.625-.312-1.485-.312-2.424-.078l3.988-5.003c-.47-.548-.704-1.173-.782-1.955 0-.469 0-.86.156-1.329L6.255 22.438c-.313.313-.548.704-.86 1.017C.938 29.162-.782 34.79 1.016 36.667c.313.391 1.017 1.095 2.346 1.33 2.033.39 6.254-2.346 10.633-7.975 4.378-5.63 6.176-10.555 5.081-12.353-.312-.469-.938-1.094-1.876-1.564zm-4.535 13.057c-3.518 4.456-7.192 7.427-8.209 6.645-1.016-.782 1.095-5.003 4.613-9.46 3.518-4.456 7.193-7.427 8.131-6.645 1.095.782-1.016 5.003-4.535 9.46zM43.782 17.982c-.078 0-.078 0 0 0l-.078-.078c-.313-.235-.782-.235-1.017.078l-3.283 3.987c0-.704-.157-1.25-.47-1.642-1.016-1.016-1.798-1.642-2.423-2.032-1.407-.86-4.3.625-6.646 3.752-2.345 3.05-3.049 6.255-1.798 7.428.47.469 2.111 1.485 2.815 1.72 1.563.547 3.83-.86 6.098-3.831 0-.079.078-.079.078-.157l6.724-8.209c.234-.39.234-.782 0-1.016zm-7.818 8.6c-1.33 1.72-2.737 2.893-3.128 2.58-.39-.313.47-1.877 1.799-3.597s2.736-2.892 3.127-2.58c.39.235-.47 1.877-1.798 3.597z" id="Shape"/><path d="M19.858 11.258l12.04 7.818c.547-.469 1.173-.781 1.72-1.094-3.83-1.72-3.049-7.818-8.99-8.522l.468-.938 5.942 1.798c.391.078.782-.078.86-.47.078-.39-.078-.78-.469-.86l-6.098-1.797c0-.938-.391-1.798-1.095-2.268-.781-.547-1.876-.625-2.892-.156L17.2.391c-.235-.313-.704-.313-1.016 0-.313.234-.313.704 0 1.016L20.17 5.63c-.235.235-.47.47-.704.782-1.172 1.72-1.094 3.83.235 4.847h.078c-.078-.078 0-.078.078 0z" id="Path"/></g></g></g></svg>